:SAMPLES-PER-SECOND 30
:FULLY-SPECIFIED
:DEGREES
560
root  -18.3879 37.7773 7.19095 -172.138 35.7119 -177.623
RightUpLeg  -2.59169 -11.6026 -15.3636
RightLeg  22.2523 -22.997 -10.1582
RightFoot  -3.88888 -1.82238 27.15
RightToes  -5.8209e-011 0 -3.6325e-017
Spine  11.8349 3.91825 -2.87809
Spine1  16.6938 4.30418 -1.14159
HEad  -15.7032 15.1152 2.7412
LeftShoulder1  1.00753 -0.867521 -16.3048
LeftArm  17.4227 -3.37327 -59.9056
LeftForeArm  84.6404 -78.6025 -105.226
LeftHand  -2.01488 -1.14777 35.0199
RightShoulder  0.51581 -0.886425 12.796
RightArm  -32.0273 -15.1357 51.9933
RightForeArm  -27.4963 51.5186 15.9835
RightHand  -5.0871 8.11517 -42.0978
LeftUpLeg  -30.6565 -7.1393 11.5243
LeftLeg  31.9278 -7.94855 -4.96904
LeftFoot  -8.82975 0.336433 -12.8935
LeftToes  -3.91115e-011 -2.2622e-010 9.51032e-012
561
root  -18.333 38.2177 7.41716 -171.011 34.3351 -177.381
RightUpLeg  -2.40226 -11.057 -14.3939
RightLeg  19.2906 -22.8445 -8.81404
RightFoot  -1.4218 -2.19198 24.7905
RightToes  -5.8209e-011 0 -3.6325e-017
Spine  12.6805 4.54263 -0.218533
Spine1  16.3573 6.81843 -5.75129
HEad  -14.0434 11.2295 6.32691
LeftShoulder1  1.02676 -1.12483 -15.3458
LeftArm  16.8575 -3.02194 -57.8277
LeftForeArm  89.8429 -78.2037 -110.941
LeftHand  -1.89175 -0.916864 34.1519
RightShoulder  0.39442 -1.14964 9.48169
RightArm  -32.6059 -7.98482 49.6007
RightForeArm  -26.3405 52.4611 16.4991
RightHand  -4.87053 7.84468 -41.2091
LeftUpLeg  -30.0828 -7.147 11.8512
LeftLeg  27.3378 -8.06524 -4.17781
LeftFoot  -5.84229 0.64488 -12.681
LeftToes  -3.91115e-011 -2.2622e-010 9.51032e-012
562
root  -18.3034 38.5726 7.65086 -170.181 34.3365 -177.552
RightUpLeg  -2.9053 -10.1454 -14.1711
RightLeg  16.8731 -21.1333 -7.36871
RightFoot  0.296852 -2.36128 22.8772
RightToes  -5.8209e-011 0 -3.6325e-017
Spine  13.2718 4.47545 1.63178
Spine1  15.7922 8.44342 -10.3329
HEad  -12.0092 9.80398 8.17137
LeftShoulder1  0.907735 -0.757119 -14.3889
LeftArm  15.2916 -0.64336 -54.6417
LeftForeArm  99.8679 -77.2544 -120.576
LeftHand  -1.89703 -1.02582 33.6917
RightShoulder  0.241729 -1.64788 5.24549
RightArm  -32.2002 0.241764 47.1264
RightForeArm  -21.2927 57.2076 19.4877
RightHand  -4.41958 7.38824 -38.9309
LeftUpLeg  -29.3023 -6.28083 11.6336
LeftLeg  23.2958 -7.49192 -3.19327
LeftFoot  -3.26462 0.888198 -12.2613
LeftToes  -3.91115e-011 -2.2622e-010 9.51032e-012
563
root  -18.2528 38.7486 7.86727 -169.587 34.7286 -178.133
RightUpLeg  -3.52549 -10.2215 -14.732
RightLeg  15.0337 -18.1343 -5.89765
RightFoot  1.06103 -2.55223 23.2516
RightToes  -5.8209e-011 0 -3.6325e-017
Spine  13.2311 4.07475 2.57891
Spine1  15.2742 9.25576 -13.9744
HEad  -10.1219 9.82522 8.67217
LeftShoulder1  0.821143 -0.485539 -13.6085
LeftArm  13.5999 3.05701 -51.4331
LeftForeArm  109.615 -76.1286 -128.504
LeftHand  -1.96867 -1.34604 33.3243
RightShoulder  0.0909586 -2.52561 0.771206
RightArm  -30.6083 8.33077 43.7821
RightForeArm  -12.7681 63.9281 25.5314
RightHand  -3.81314 6.63723 -35.9092
LeftUpLeg  -28.9309 -5.24003 11.1203
LeftLeg  20.4242 -7.15979 -2.61224
LeftFoot  -1.64789 1.0481 -12.2045
LeftToes  -3.91115e-011 -2.2622e-010 9.51032e-012
564
root  -18.1451 38.7598 8.07154 -169.499 34.6532 -178.816
RightUpLeg  -3.54713 -10.8229 -15.5345
RightLeg  13.9301 -14.8871 -4.64985
RightFoot  0.609295 -2.64199 24.9317
RightToes  -5.8209e-011 0 -3.6325e-017
Spine  13.0158 3.79428 2.95556
Spine1  14.8864 9.57922 -15.9204
HEad  -8.82921 10.2122 8.74729
LeftShoulder1  0.868121 -0.849677 -12.9042
LeftArm  12.6094 6.78652 -49.3838
LeftForeArm  114.884 -75.4875 -132.124
LeftHand  -1.94066 -1.42658 32.5036
RightShoulder  -0.0221184 -3.92869 -3.20094
RightArm  -30.2038 14.9105 40.5489
RightForeArm  -1.14172 69.8928 34.3006
RightHand  -3.12596 5.59063 -32.4685
LeftUpLeg  -28.8363 -4.55056 10.6684
LeftLeg  18.8636 -7.43524 -2.48733
LeftFoot  -0.932783 1.1402 -12.4212
LeftToes  -3.91115e-011 -2.2622e-010 9.51032e-012
565
root  -17.9718 38.715 8.27239 -170.188 34.0211 -179.209
RightUpLeg  -2.68834 -10.979 -15.9837
RightLeg  13.8077 -12.1774 -3.8861
RightFoot  -1.44413 -2.27622 25.739
RightToes  -5.8209e-011 0 -3.6325e-017
Spine  13.1488 3.81704 3.01358
Spine1  14.6468 9.62696 -15.9896
HEad  -8.07009 10.5919 9.195
LeftShoulder1  0.981442 -1.54736 -12.3353
LeftArm  12.694 9.22151 -48.6254
LeftForeArm  114.077 -75.5919 -131.555
LeftHand  -1.73016 -0.975043 31.1004
RightShoulder  -0.0651836 -5.39044 -5.73367
RightArm  -31.7526 19.2491 39.604
RightForeArm  7.22614 72.8058 41.4473
RightHand  -2.57093 4.62799 -29.4618
LeftUpLeg  -28.3602 -4.46756 10.5915
LeftLeg  18.3544 -8.00183 -2.59362
LeftFoot  -0.704701 1.17349 -12.5231
LeftToes  -3.91115e-011 -2.2622e-010 9.51032e-012
566
root  -17.7352 38.6893 8.47897 -171.573 33.412 -179.291
RightUpLeg  -1.44882 -10.4093 -16.0133
RightLeg  15.0084 -10.5823 -3.68525
RightFoot  -4.41622 -1.57638 25.1326
RightToes  -5.8209e-011 0 -3.6325e-017
Spine  13.4782 4.10217 2.71684
Spine1  14.6943 9.5839 -14.8761
HEad  -7.6258 11.0505 10.0582
LeftShoulder1  1.07068 -2.07091 -12.0905
LeftArm  13.5176 10.0368 -48.6724
LeftForeArm  109.589 -76.1705 -128.297
LeftHand  -1.41998 -0.21269 29.078
RightShoulder  -0.0720811 -5.99334 -6.29256
RightArm  -33.2321 20.9398 41.2031
RightForeArm  7.46138 73.1943 43.0229
RightHand  -2.28041 4.05475 -27.785
LeftUpLeg  -27.1357 -4.91857 10.9389
LeftLeg  18.3347 -8.45585 -2.76339
LeftFoot  -0.580158 1.21224 -12.7927
LeftToes  -3.91115e-011 -2.2622e-010 9.51032e-012
567
root  -17.4451 38.6908 8.71328 -173.121 33.2621 -179.246
RightUpLeg  -0.588447 -9.56357 -15.7519
RightLeg  17.3576 -10.6276 -4.03767
RightFoot  -6.13128 -1.14969 24.0469
RightToes  -5.8209e-011 0 -3.6325e-017
Spine  13.3822 4.47991 2.15527
Spine1  15.2387 9.56248 -13.5129
HEad  -7.44828 11.6271 10.5806
LeftShoulder1  1.12275 -2.33717 -12.112
LeftArm  14.286 10.0945 -49.2973
LeftForeArm  106.164 -76.7483 -124.899
LeftHand  -1.15335 0.363237 26.431
RightShoulder  -0.0741182 -5.49526 -5.2556
RightArm  -32.5487 20.0162 43.6041
RightForeArm  6.40221 73.1708 43.1498
RightHand  -2.10741 3.67312 -26.7894
LeftUpLeg  -25.4435 -5.19433 11.4115
LeftLeg  18.1385 -8.57935 -2.7623
LeftFoot  -0.285737 1.30785 -13.446
LeftToes  -3.91115e-011 -2.2622e-010 9.51032e-012
568
root  -17.1231 38.721 9.01407 -174.264 33.4779 -179.103
RightUpLeg  -0.549621 -9.1009 -15.0375
RightLeg  20.1425 -12.2066 -5.11267
RightFoot  -5.19628 -1.29666 23.2105
RightToes  -5.8209e-011 0 -3.6325e-017
Spine  12.6347 4.69236 1.61307
Spine1  16.1123 9.41758 -12.3121
HEad  -7.50954 12.2999 10.024
LeftShoulder1  1.14406 -2.43671 -12.1532
LeftArm  14.5663 10.3847 -50.3944
LeftForeArm  106.249 -77.006 -123.646
LeftHand  -1.02653 0.456339 24.0712
RightShoulder  -0.0582505 -4.57395 -3.30853
RightArm  -29.0797 17.4455 45.9976
RightForeArm  10.3721 73.8329 45.1476
RightHand  -1.94572 3.38438 -25.5928
LeftUpLeg  -23.7977 -4.75628 11.8516
LeftLeg  17.3565 -8.01626 -2.2999
LeftFoot  0.403375 1.43977 -13.9698
LeftToes  -3.91115e-011 -2.2622e-010 9.51032e-012
